<svg xmlns="http://www.w3.org/2000/svg" height="1200" width="1600" version="1.1" xmlns:xlink="http://www.w3.org/1999/xlink" xmlns:svgjs="http://svgjs.com/svgjs"><rect fill="#ffffff" width="1600" height="1200"></rect><g><path d="M1362.95 878.24H237.05V996.67H1362.95V878.24Z" fill="#b6acaa" opacity="1" stroke-width="4" stroke="#000000"></path></g><g><path d="M942.11 747.46C935.35 747.46 929.86 741.96 929.86 735.2 929.86 728.46 935.35 722.96 942.11 722.96H1244.16C1250.92 722.96 1256.42 728.46 1256.42 735.2 1256.42 741.96 1250.92 747.46 1244.16 747.46H942.11Z" fill="#000000" opacity="1" stroke-width="4" stroke="#000000"></path><path d="M1019.96 878.7C989.98 878.64 965.56 854.22 965.5 824.25V666.74C966.01 667.34 1220.15 667.34 1220.55 666.7L1220.65 824.25C1220.59 854.26 1196.13 878.7 1166.1 878.7H1019.96Z" fill="#651913" opacity="1" stroke-width="4" stroke="#000000"></path><path d="M1093.14 730.59C1005.93 730.59 965.91 667.4 967.8 666.82L1218.94 666.86C1220.34 667.4 1180.32 730.59 1093.14 730.59Z" fill="#e9766c" opacity="1" stroke-width="4" stroke="#000000"></path><path d="M1095.93 666.8C1082.98 666.8 1072.43 656.25 1072.43 643.29 1072.43 630.33 1082.98 619.78 1095.93 619.78 1108.89 619.78 1119.44 630.33 1119.44 643.29 1119.44 656.25 1108.89 666.8 1095.93 666.8Z" fill="#000000" opacity="1" stroke-width="4" stroke="#000000"></path></g><g><path d="M1222.17 255.88H1239.39C1247.02 255.88 1253.14 262 1253.14 269.63L1253.26 270.09 1253.14 311.92" stroke="#000000" stroke-width="4" stroke-linecap="round" stroke-linejoin="round" opacity="1" fill="none"></path><path d="M1225.41 370.78L1225.44 252.87 1093.67 252.84 1115.61 282.94 1115.6 370.78H1225.41Z" fill="#651913" opacity="1" stroke-width="4" stroke="#000000"></path><path d="M1148.45 370.78L1148.48 282.92 1126.52 252.85 1093.67 252.84 1115.61 282.94 1115.6 370.78H1148.45Z" fill="#65191300" opacity="0" stroke-width="4" stroke="#ffffff00"></path><path d="M1180.34 292.74H1160.7" stroke="#000000" stroke-width="4" stroke-linecap="round" stroke-linejoin="round" opacity="1" fill="none"></path><path d="M1180.34 315.27H1160.7" stroke="#000000" stroke-width="4" stroke-linecap="round" stroke-linejoin="round" opacity="1" fill="none"></path><path d="M1180.34 337.81H1160.7" stroke="#000000" stroke-width="4" stroke-linecap="round" stroke-linejoin="round" opacity="1" fill="none"></path></g><g><path d="M1291.36 370.34H894.71V393.21H1291.36V370.34Z" fill="#ffd333" opacity="1" stroke-width="4" stroke="#000000"></path></g><g><path d="M763.6 643.38C784.47 611.8 814.03 567.59 825.56 556.61 837.64 545.08 860.34 525.49 868.58 525.49 871.14 525.49 872.97 526.32 873.89 528.06 877.18 533.46 872.15 545.72 868.58 552.95 871.05 552.4 873.52 552.22 876.17 552.22 883.13 552.22 888.8 554.23 891.37 557.34 898.87 566.68 892.65 576.93 892.56 577.02 892.65 577.02 899.97 578.49 903.08 584.16 905 587.55 905 591.66 903.17 596.42 903.17 596.42 905.83 598.99 907.29 602.83 908.66 606.4 909.03 611.8 903.81 617.29 904 617.29 907.57 619.85 908.21 624.43 908.66 627.91 907.11 631.84 903.72 635.69 894.75 646.12 880.93 647.86 876.45 648.32 876.08 648.41 875.81 648.41 875.44 648.41 874.62 648.41 873.79 648.32 872.7 648.04 872.24 647.86 871.87 647.68 871.51 647.49 872.05 648.32 871.87 649.51 871.32 650.51 865.65 661.31 853.48 682.73 841.94 701.31 841.12 702.68 839.29 702.96 838.01 702.04L764.24 647.04C763.14 646.21 762.78 644.57 763.6 643.38Z" fill="#8a5f51" opacity="1" stroke-width="4" stroke="#000000"></path><path d="M861.9 568.42C861.9 568.42 849.91 575.65 848.08 577.39 846.89 578.49 846.34 578.94 846.34 579.31 847.71 609.7 835.63 627.45 829.95 636.05 829.22 637.15 828.58 638.16 828.03 638.98 827.76 639.53 828.22 640.08 828.76 639.9 842.95 633.58 849.45 627.45 851.65 624.98 852.01 624.61 852.65 624.8 852.65 625.25 852.83 626.44 853.29 628.37 854.48 630.38 856.59 633.95 859.79 635.5 861.07 636.05 861.35 636.15 861.53 636.51 861.44 636.79 860.61 639.53 861.07 642.46 862.81 644.75 864.46 646.76 867.2 648.23 870.77 648.23 871.05 648.23 871.41 648.23 871.6 648.23H871.51C869.13 647.4 867.3 645.57 866.56 643.28 865.92 641.27 865.74 638.16 868.3 634.22 868.58 633.86 868.3 633.4 867.94 633.31 866.01 632.94 861.62 631.75 859.88 628.09 856.86 621.5 862.26 613.17 862.26 613.08 862.26 613.08 862.26 613.08 862.17 613.08 862.08 613.08 861.53 613.08 860.98 613.08 858.88 613.08 855.03 612.62 852.74 608.87 849.63 603.65 852.74 596.88 853.84 594.87 854.02 594.59 853.84 594.23 853.57 594.04 852.1 593.4 848.53 590.93 850 583.52 851.37 576.2 861.71 568.51 861.9 568.42Z" fill="#8a5f5100" opacity="0" stroke-width="4" stroke="#ffffff00"></path><path d="M873.15 648.13C868.39 647.13 864.28 640.54 869.86 633.13 869.86 633.13 862.9 632.3 860.71 627.45 857.69 620.31 863.45 612.81 863.45 612.81 863.45 612.81 856.77 613.91 853.66 608.41 850.09 602.01 855.31 593.86 855.31 593.86 855.31 593.86 850.18 590.75 850.91 583.24 851.92 574.46 861.9 568.42 861.9 568.42" stroke="#000000" stroke-width="4" stroke-linecap="round" opacity="1" fill="none"></path><path d="M903.81 617.29C897.59 621.14 886.33 626.81 869.86 633.13" stroke="#000000" stroke-width="4" stroke-linecap="round" opacity="1" fill="none"></path><path d="M903.17 596.42C895.94 600.82 880.02 609.15 863.45 612.81" stroke="#000000" stroke-width="4" stroke-linecap="round" opacity="1" fill="none"></path><path d="M893.29 576.84C881.57 584.8 869.03 590.2 855.31 593.86" stroke="#000000" stroke-width="4" stroke-linecap="round" opacity="1" fill="none"></path><path d="M869.03 551.39L862.08 567.78" stroke="#000000" stroke-width="4" stroke-linecap="round" opacity="1" fill="none"></path><path d="M828.04 638.98C836.46 628 847.9 606.13 846.35 579.31" stroke="#000000" stroke-width="4" stroke-linecap="round" opacity="1" fill="none"></path><path d="M580.56 583.61L579.65 567.78C579.65 567.78 597.31 573.63 615.71 565.86 631.45 556.61 635.57 540.87 629.98 513.05 628.25 504.35 627.42 494.47 626.69 484.31 626.05 475.98 625.32 467.38 624.13 459.23 621.84 444.68 618.09 444.04 612.23 436.9 601.52 423.54 580.2 414.57 559.24 414.57 543.5 414.57 528.3 419.42 515.58 428.75 479.43 455.2 483.73 500.51 484.92 514.88 484.83 514.79 491.42 585.99 491.42 585.99L580.56 583.61Z" fill="#8a5f51" opacity="1" stroke-width="4" stroke="#000000"></path><path d="M579.56 567.59C578.55 567.14 564.64 561.74 553.93 554.78 553.84 554.69 553.65 554.87 553.75 554.96L581.11 590.93 579.56 567.59Z" fill="#8a5f5100" opacity="0" stroke-width="4" stroke="#ffffff00"></path><path d="M293.44 808.39C297.75 777.64 317.88 739.2 334.08 712.29 346.53 691.79 358.43 674.77 364.47 666.44 379.66 645.11 395.13 630.47 411.69 620.31 426.52 611.07 442.54 605.85 462.03 603.56 491.78 598.9 491.78 586.72 491.78 581.05L580.46 581.23 582.48 597.98C582.48 597.98 583.85 597.98 585.59 597.98 593.82 597.98 622.56 599.08 647.91 614.45 684.98 636.88 739.9 679.89 740.35 680.35 740.44 680.17 750.33 664.43 763.14 644.57L841.58 702.87C807.62 756.59 784.19 774.99 770.65 781.03 764.79 783.68 757.56 785.05 749.6 785.05 700.27 785.05 629.52 733.89 628.79 733.43L614.97 813.15 463.86 813.33 438.42 748.08 396.96 805.65C397.14 805.65 414.8 803.82 446.2 801.62L454.89 890.21C431.83 895.71 408.03 899 384.24 900.19 382.04 900.28 379.84 900.28 377.65 900.28 348.72 900.28 324.56 890.76 309.55 873.56 295.37 857.27 289.78 834.66 293.44 808.39Z" fill="#e9766c" opacity="1" stroke-width="4" stroke="#000000"></path><path d="M489.85 434.43C503.95 434.43 517.13 428.94 526.92 419.05 547.42 398.55 547.42 365.24 526.92 344.74 516.94 334.76 503.76 329.36 489.85 329.36 475.94 329.36 462.58 334.85 452.79 344.74 442.81 354.71 437.41 367.89 437.41 381.8 437.41 395.9 442.9 409.08 452.79 418.87 462.76 428.94 475.94 434.43 489.85 434.43Z" fill="#222222" opacity="1" stroke-width="4" stroke="#000000"></path><path d="M437.04 464.72C455.62 464.72 510.73 433.7 518.14 424.63 518.6 423.9 518.88 423.45 518.88 423.08 518.78 422.62 518.05 422.35 516.59 422.35 504.51 422.35 442.44 442.57 432.19 456.85 430.82 458.68 430.45 460.33 431 461.79 431.74 463.72 433.75 464.72 437.04 464.72Z" fill="#edd2cf" opacity="1" stroke-width="4" stroke="#000000"></path><path d="M522.25 420.33C529.76 420.33 586.5 379.61 593.55 362.12 594.65 359.47 594.56 357.37 593.09 356.08 592.27 355.35 591.17 354.89 589.8 354.89 580 354.89 559.41 374.39 550.99 382.81 536.44 397.27 523.35 413.19 521.7 418.41 521.43 419.24 521.43 419.78 521.8 419.97 521.7 420.24 521.98 420.33 522.25 420.33Z" fill="#edd2cf" opacity="1" stroke-width="4" stroke="#000000"></path><path d="M681.87 765.01L612.04 694.63 628.6 733.43C628.88 733.53 652.58 750.73 681.87 765.01Z" fill="#e9766c00" opacity="0" stroke-width="4" stroke="#ffffff00"></path><path d="M499.2 813.15L456.45 723.37 438.42 748.08 463.69 813.24 499.2 813.15Z" fill="#e9766c00" opacity="0" stroke-width="4" stroke="#ffffff00"></path><path d="M609.02 883.44L628.79 733.43C628.79 733.07 634.09 692.25 594.01 675.77 582.48 671.02 570.39 668.64 557.86 668.64 543.39 668.64 528.38 671.75 513.28 678.25 499.1 684.2 487.47 694.26 479.69 707.53 471.91 720.71 468.53 735.81 470.27 751.01L476.86 813.15 598.13 885.27 609.02 883.44Z" fill="#edd2cf" opacity="1" stroke-width="4" stroke="#000000"></path><path d="M372.25 656.19C401.17 621.41 437.78 612.35 491.23 608.51 501.75 607.77 510.72 605.21 517.86 600.73 527.1 595.05 533.05 585.35 533.88 574.55L536.99 536.38C536.9 536.38 530.67 533.46 523.9 528.79 517.59 524.4 509.62 517.44 506.6 509.02 504.77 503.8 505.05 498.49 507.61 493.37 511.27 486.14 516.85 482.48 524.17 482.48 537.9 482.48 553.1 495.11 553.28 495.2 553.46 495.02 572.32 494.38 574.7 476.16 574.7 476.16 601.42 481.29 599.04 459.32 614.78 467.74 624.21 458.77 624.21 458.77 622.38 445.78 618.08 433.97 612.4 426.74 601.69 413.38 580.37 404.41 559.41 404.41 543.67 404.41 528.48 409.26 515.75 418.59 479.6 445.04 482.99 488.43 484.18 502.7 484.09 502.61 474.02 498.95 460.38 498.95 443.45 498.95 428.99 504.53 417.46 515.43 392.38 539.31 399.61 577.57 399.79 577.94 399.43 577.94 368.86 581.05 360.99 612.72 354.86 638.34 372.25 656.19 372.25 656.19Z" fill="#222222" opacity="1" stroke-width="4" stroke="#000000"></path><path d="M579.28 567.59C573.06 565.49 566.93 563.02 560.98 560.36" stroke="#000000" stroke-width="4" stroke-linecap="round" opacity="1" fill="none"></path><path d="M406.38 600.82C402.91 593.22 401.62 584.89 399.79 577.94 401.44 585.08 403.09 593.04 406.38 600.82Z" stroke="#000000" stroke-width="4" stroke-linecap="round" stroke-linejoin="round" opacity="1" fill="none"></path><path d="M486.11 523.85H486.2L484.19 503.34V502.7L486.11 523.85Z" stroke="#000000" stroke-width="4" stroke-linecap="round" stroke-linejoin="round" opacity="1" fill="none"></path><path d="M534.34 551.39C526.71 551.39 520.52 545.21 520.52 537.57 520.52 529.94 526.71 523.75 534.34 523.75 541.98 523.75 548.16 529.94 548.16 537.57 548.16 545.21 541.98 551.39 534.34 551.39Z" fill="#ffd333" opacity="1" stroke-width="4" stroke="#000000"></path><path d="M538.91 510.76L525.09 502.52" stroke="#000000" stroke-width="4" stroke-linecap="round" opacity="1" fill="none"></path><path d="M602.34 533.27C599.05 533.55 595.11 532.54 592.73 528.51" stroke="#000000" stroke-width="4" stroke-linecap="round" opacity="1" fill="none"></path><path d="M583.94 504.81C581.67 504.81 579.82 502.96 579.82 500.69 579.82 498.41 581.67 496.57 583.94 496.57 586.22 496.57 588.06 498.41 588.06 500.69 588.06 502.96 586.22 504.81 583.94 504.81Z" fill="#222222" opacity="1" stroke-width="4" stroke="#000000"></path><path d="M615.33 499.41C613.06 499.41 611.21 497.57 611.21 495.29 611.21 493.02 613.06 491.17 615.33 491.17 617.61 491.17 619.45 493.02 619.45 495.29 619.45 497.57 617.61 499.41 615.33 499.41Z" fill="#222222" opacity="1" stroke-width="4" stroke="#000000"></path><path d="M605.81 509.93C606.82 512.68 607.64 516.16 607.19 517.16 606.18 519.45 603.43 520.28 603.43 520.28" stroke="#000000" stroke-width="4" stroke-linecap="round" opacity="1" fill="none"></path><path d="M626.14 606.4L601.61 684.47" stroke="#000000" stroke-width="4" stroke-linecap="round" opacity="1" fill="none"></path><path d="M582.48 597.98L583.86 615.19" stroke="#000000" stroke-width="4" stroke-linecap="round" opacity="1" fill="none"></path><path d="M740.36 680.35L722.61 705.43" stroke="#000000" stroke-width="4" stroke-linecap="round" opacity="1" fill="none"></path><path d="M462.67 612.07L503.67 689.87" stroke="#000000" stroke-width="4" stroke-linecap="round" opacity="1" fill="none"></path><path d="M615.89 812.97H462.03" stroke="#000000" stroke-width="4" stroke-linecap="round" opacity="1" fill="none"></path><path d="M591.54 742.95H525.64" stroke="#000000" stroke-width="4" stroke-linecap="round" opacity="1" fill="none"></path><path d="M559.78 915.75C564.54 915.75 568.29 913.55 570.94 909.34 570.94 909.34 575.79 912.09 581.65 912.09 586.04 912.09 589.89 910.53 592.91 907.51 592.91 907.51 596.94 909.34 601.42 909.34 606.36 909.34 610.02 907.15 612.22 902.94 617.71 891.95 604.07 854.43 566.37 828.8 541.66 811.96 516.3 800.7 473.01 800.7 466.97 800.7 460.38 800.98 453.7 801.34 452.51 801.44 446.84 801.8 445.46 801.89L454.07 890.31C476.22 885.18 491.23 880.24 491.23 880.24 491.23 880.24 499.74 890.4 519.6 894.88 519.6 894.97 524.17 906.87 531.5 911.36 535.34 913.74 539.46 915.11 543.21 915.11 545.87 915.11 548.15 914.38 549.8 913.19 549.89 913 554.56 915.75 559.78 915.75Z" fill="#8a5f51" opacity="1" stroke-width="4" stroke="#000000"></path><path d="M438.42 748.08L450.77 731.05" stroke="#000000" stroke-width="4" stroke-linecap="round" opacity="1" fill="none"></path><path d="M364.47 808.21L396.96 805.65" stroke="#000000" stroke-width="4" stroke-linecap="round" opacity="1" fill="none"></path><path d="M593.37 906.96C591.54 895.98 585.13 878.59 576.89 867.61" stroke="#000000" stroke-width="4" stroke-linecap="round" opacity="1" fill="none"></path><path d="M571.4 908.7C568.66 898.63 563.16 884.91 556.76 874.75" stroke="#000000" stroke-width="4" stroke-linecap="round" opacity="1" fill="none"></path><path d="M550.35 912.36C548.52 906.87 543.94 894.06 537.54 883.99" stroke="#000000" stroke-width="4" stroke-linecap="round" opacity="1" fill="none"></path><path d="M396.96 805.65L411.6 785.42 358.15 808.48V808.67L396.96 805.65Z" fill="#e9766c00" opacity="0" stroke-width="4" stroke="#ffffff00"></path><path d="M740.36 680.35C740.27 680.26 732.31 674.04 720.5 665.16L719.49 709.91 740.36 680.35Z" fill="#e9766c00" opacity="0" stroke-width="4" stroke="#ffffff00"></path></g><g><path d="M968.24 521.54L945.65 521.38 932.62 539.87 925.85 518.38 904.38 511.7 922.7 498.55 922.22 476.07 940.45 489.48 961.82 482.07 954.63 503.46 968.24 521.54Z" fill="#edd2cf" opacity="1" stroke-width="4" stroke="#000000"></path></g><g><path d="M988.5 228.32C985.08 228.32 982.31 225.53 982.31 222.13V209.02C982.39 205.61 985.16 202.83 988.5 202.83 991.91 202.83 994.69 205.61 994.69 209.02V222.13C994.69 225.53 991.91 228.32 988.5 228.32Z" fill="#e9766c" opacity="1" stroke-width="4" stroke="#000000"></path><path d="M988.58 273.87C1013.28 273.87 1033.31 260.91 1033.31 244.94 1033.31 228.96 1013.28 216.01 988.58 216.01 963.87 216.01 943.85 228.96 943.85 244.94 943.85 260.91 963.87 273.87 988.58 273.87Z" fill="#edd2cf" opacity="1" stroke-width="4" stroke="#000000"></path><path d="M943.87 370.15L943.85 244.71 1033.28 244.69 1033.31 370.15H943.87Z" fill="#e9766c" opacity="1" stroke-width="4" stroke="#000000"></path><path d="M1005.53 370.15L1005.51 244.71 1033.28 244.69 1033.31 370.15H1005.53Z" fill="#e9766c00" opacity="0" stroke-width="4" stroke="#ffffff00"></path><path d="M962.75 342.63L962.73 272.23 1013.63 272.21 1013.65 342.63H962.75Z" fill="#ffd333" opacity="1" stroke-width="4" stroke="#000000"></path><path d="M940.01 244.86H1037.14" stroke="#000000" stroke-width="4" stroke-linecap="round" stroke-linejoin="round" opacity="1" fill="none"></path></g></svg>